<?xml version="1.0" encoding="iso-8859-1"?>
<!-- Generator: Adobe Illustrator 19.0.0, SVG Export Plug-In . SVG Version: 6.00 Build 0)  -->
<svg version="1.1" id="Capa_1" xmlns="http://www.w3.org/2000/svg" xmlns:xlink="http://www.w3.org/1999/xlink" x="0px" y="0px"
	 viewBox="0 0 512 512" style="enable-background:new 0 0 512 512;" xml:space="preserve" width='25px' height="25px" fill="#fff">
<g>
	<g>
		<g>
			<path d="M392,77c-66.168,0-120,53.832-120,120c0,31.641,12.208,61.497,34.374,84.069c22.117,22.521,51.659,35.27,83.189,35.9
				l0.916,0.023c11.054,0.333,20.226-8.431,20.514-19.473c0.288-11.042-8.431-20.226-19.473-20.514l-1.107-0.028
				C347.176,276.141,312,240.261,312,197c0-44.112,35.888-80,80-80s80,35.888,80,80c0,55.098-13.104,105.94-38.951,151.115
				c-19.317,33.765-38.961,51.6-39.328,51.93c-8.238,7.313-9.012,19.921-1.718,28.188c3.953,4.479,9.466,6.768,15.005,6.768
				c4.701-0.001,9.422-1.649,13.224-5.004c0.967-0.854,23.946-21.349,46.566-60.335C487.42,334.122,512,275.316,512,197
				C512,130.831,458.168,77,392,77z"/>
			<path d="M120,77C53.832,77,0,130.831,0,197c0,31.641,12.208,61.497,34.374,84.071c22.117,22.521,51.659,35.269,83.189,35.9
				l0.916,0.023c11.03,0.333,20.227-8.431,20.514-19.473c0.288-11.042-8.431-20.226-19.473-20.514l-1.107-0.028
				C75.176,276.141,40,240.261,40,197c0-44.112,35.888-80,80-80s80,35.888,80,80c0,55.098-13.104,105.94-38.951,151.114
				c-19.317,33.765-38.961,51.6-39.328,51.93c-8.239,7.314-9.012,19.921-1.718,28.188c3.953,4.48,9.466,6.768,15.005,6.768
				c4.701,0,9.422-1.648,13.225-5.003c0.966-0.854,23.946-21.349,46.566-60.335C215.42,334.122,240,275.317,240,197
				C240,130.831,186.168,77,120,77z"/>
		</g>
	</g>
</g>
<g>
</g>
<g>
</g>
<g>
</g>
<g>
</g>
<g>
</g>
<g>
</g>
<g>
</g>
<g>
</g>
<g>
</g>
<g>
</g>
<g>
</g>
<g>
</g>
<g>
</g>
<g>
</g>
<g>
</g>
</svg>
